<?xml version="1.0" encoding="UTF-8"?>
<svg version="1.1" xmlns="http://www.w3.org/2000/svg" width="991" height="1038">
<path d="M0 0 C2.34892351 -0.00463607 4.69784627 -0.00966178 7.04676819 -0.01504517 C13.40104841 -0.02810063 19.75531809 -0.03460141 26.1096096 -0.03905582 C30.09379063 -0.04199943 34.07796954 -0.04607602 38.06214905 -0.05056 C49.13899329 -0.06274407 60.21583567 -0.07304292 71.29268646 -0.07643509 C71.99956412 -0.07665466 72.70644178 -0.07687422 73.43473998 -0.07710044 C74.49730809 -0.07742786 74.49730809 -0.07742786 75.58134222 -0.07776189 C77.01630497 -0.07820532 78.45126772 -0.07865188 79.88623047 -0.07910156 C80.95387177 -0.07943371 80.95387177 -0.07943371 82.04308158 -0.07977256 C93.53634357 -0.0837076 105.02954166 -0.10112575 116.52277905 -0.12446108 C128.38281327 -0.14834229 140.24281568 -0.16064459 152.10287428 -0.16180301 C158.73738003 -0.16271079 165.37181379 -0.16856357 172.00630188 -0.18662262 C225.12614541 -0.32309605 225.12614541 -0.32309605 248.67773438 3.16113281 C250.21568392 3.37328304 251.75376743 3.58446582 253.29202271 3.79438782 C256.62414656 4.26700843 259.92875072 4.81212371 263.24023438 5.41113281 C264.42109619 5.62165283 265.60195801 5.83217285 266.81860352 6.04907227 C321.36398159 16.10690557 374.10780065 37.42492897 419.67773438 69.16113281 C420.21527344 69.53415527 420.7528125 69.90717773 421.30664062 70.29150391 C445.05306753 86.82339849 469.18001433 105.80532166 487.99023438 127.91113281 C489.91751023 130.15463575 491.86218825 132.35799243 493.88476562 134.51660156 C501.45391036 142.59932316 508.0807005 151.27955281 514.67773438 160.16113281 C515.22896973 160.8981543 515.78020508 161.63517578 516.34814453 162.39453125 C524.46356729 173.27391962 531.84758285 184.43335169 538.67773438 196.16113281 C539.08024414 196.8451416 539.48275391 197.52915039 539.89746094 198.23388672 C572.55985669 254.03771005 593.83603735 320.43864179 593.8249054 385.4473877 C593.82858208 386.62463771 593.83225877 387.80188773 593.83604687 389.01481199 C593.84508527 392.24746367 593.84976377 395.4800855 593.85243618 398.71274757 C593.85637635 402.21428824 593.8659522 405.71581472 593.87464905 409.21734619 C593.89431762 417.660499 593.90447092 426.10365283 593.91337684 434.54682279 C593.91689428 437.74004825 593.92103998 440.93327276 593.9252165 444.12649742 C593.94368366 458.25022425 593.95942239 472.37395114 593.96711445 486.49768829 C593.96902374 489.94670106 593.97094415 493.39571382 593.97290039 496.84472656 C593.97338413 497.70175688 593.97386787 498.5587872 593.97436627 499.44178814 C593.98263392 513.26804637 594.00791688 527.09421718 594.04048107 540.9204374 C594.07379013 555.1817493 594.0915848 569.44301718 594.09475869 583.70436811 C594.09690278 591.68444248 594.10545127 599.66438837 594.13121986 607.64442444 C594.40304801 695.17452388 580.58395105 776.03577554 489.16601562 908.45410156 C487.10329403 910.69816132 485.09655121 912.97072976 483.11523438 915.28613281 C477.16690603 922.13097954 470.66729373 928.4574909 463.77148438 934.34082031 C461.36894302 936.42959694 459.06362755 938.60970126 456.74023438 940.78613281 C450.13392757 946.80096587 443.07566055 952.16646245 435.91162109 957.49658203 C434.45599018 958.58122592 433.00427487 959.67115084 431.55712891 960.76708984 C374.23251735 1004.16485476 303.95331424 1029.85767123 232.67773438 1037.16113281 C231.84175689 1037.24894894 231.0057794 1037.33676506 230.14446926 1037.42724228 C218.90261759 1038.44906279 207.649846 1038.31705136 196.37133789 1038.32226562 C194.0240369 1038.32690173 191.67673665 1038.33192744 189.32943726 1038.33731079 C182.979222 1038.35036665 176.62901728 1038.35686721 170.27879071 1038.36132145 C166.29661181 1038.36426523 162.3144357 1038.36837257 158.33225822 1038.37282562 C147.2597052 1038.38501027 136.18715404 1038.39530867 125.11459446 1038.39870071 C124.40796836 1038.39892028 123.70134226 1038.39913985 122.97330325 1038.39936607 C122.26517997 1038.39958434 121.55705669 1038.39980262 120.82747513 1038.40002751 C119.39304006 1038.40047095 117.95860499 1038.40091751 116.52416992 1038.40136719 C115.81267137 1038.40158862 115.10117281 1038.40181005 114.36811369 1038.40203819 C102.88199376 1038.40597226 91.3959378 1038.42338719 79.9098425 1038.44672671 C68.05545351 1038.47061552 56.20109635 1038.48291057 44.34668297 1038.48406863 C37.71605771 1038.48497606 31.0855045 1038.49081972 24.45489693 1038.50888824 C-64.52019982 1038.73732825 -149.08626889 1020.86120197 -223.32226562 969.16113281 C-223.85980469 968.78811035 -224.39734375 968.41508789 -224.95117188 968.03076172 C-249.12902801 951.19851279 -273.52238152 931.82078535 -292.69726562 909.34863281 C-294.53636494 907.20844202 -296.38431772 905.09443903 -298.30664062 903.02832031 C-305.58068044 895.1967811 -311.94626571 886.72418503 -318.32226562 878.16113281 C-318.87495117 877.42266113 -319.42763672 876.68418945 -319.99707031 875.92333984 C-328.11076565 865.04545494 -335.49325315 853.88695812 -342.32226562 842.16113281 C-342.72477539 841.47712402 -343.12728516 840.79311523 -343.54199219 840.08837891 C-376.22015455 784.25761828 -397.51501685 717.81681886 -397.46270752 652.70751953 C-397.46567864 651.52447613 -397.46864976 650.34143272 -397.47171092 649.12253952 C-397.47881988 645.87863072 -397.48156461 642.63475446 -397.48230839 639.3908391 C-397.48417742 635.87581843 -397.49173398 632.36080882 -397.4984436 628.84579468 C-397.51195597 621.17544202 -397.51804122 613.50509463 -397.52245426 605.83473206 C-397.52523015 601.02975354 -397.52946999 596.22477699 -397.53395844 591.4197998 C-397.54614447 578.07312141 -397.55644338 564.72644458 -397.55983353 551.37976074 C-397.56005309 550.52747013 -397.56027266 549.67517952 -397.56049888 548.79706192 C-397.56071716 547.94291073 -397.56093543 547.08875954 -397.56116033 546.20872498 C-397.56160377 544.47834269 -397.56205033 542.74796041 -397.5625 541.01757812 C-397.56272143 540.15927713 -397.56294286 539.30097614 -397.563171 538.41666603 C-397.56710878 524.54696066 -397.58453454 510.67730815 -397.60785952 496.80762315 C-397.63170447 482.51128261 -397.6440414 468.21496842 -397.64520144 453.91860771 C-397.64611116 445.91476431 -397.6516827 437.91098972 -397.67002106 429.90716553 C-397.68560109 423.08389254 -397.69043938 416.2607096 -397.68228295 409.43742216 C-397.6784378 405.97046506 -397.67899484 402.50368822 -397.6933403 399.03675461 C-398.03300253 299.87497391 -360.39951406 202.73684333 -292.94726562 130.00488281 C-290.49989001 127.35355923 -288.09435761 124.6703613 -285.69726562 121.97363281 C-279.62923812 115.22416906 -273.28274539 108.85120144 -266.38476562 102.95019531 C-264.96671411 101.72014305 -263.57178884 100.46307904 -262.19726562 99.18457031 C-255.04868747 92.5431548 -247.3844281 86.6708205 -239.57226562 80.84179688 C-238.11023895 79.74971879 -236.65169074 78.65296278 -235.19726562 77.55078125 C-177.87258254 34.15621006 -107.59597678 8.4645656 -36.32226562 1.16113281 C-35.06857555 1.02940863 -35.06857555 1.02940863 -33.78955841 0.89502335 C-22.54231864 -0.12744337 -11.28391779 0.00521303 0 0 Z " fill="#FEFEFE" transform="translate(397.322265625,-0.1611328125)"/>
<path d="M0 0 C2.01834281 1.95043595 3.88460346 3.95510817 5.71484375 6.08203125 C6.19695312 6.62472656 6.6790625 7.16742188 7.17578125 7.7265625 C19.2236634 22.73165209 17.86375244 45.97299266 17.82836914 64.03564453 C17.82808676 66.05679828 17.828246 68.07795214 17.82881165 70.09910583 C17.82909763 75.56322449 17.8232331 81.02732104 17.81623769 86.49143457 C17.80997097 92.21026146 17.80939773 97.92908891 17.80821228 103.6479187 C17.80510874 114.46716855 17.79690853 125.28640825 17.78686279 136.10565364 C17.7756713 148.42729425 17.77018356 160.74893534 17.76516736 173.07057977 C17.75472509 198.40773607 17.73694229 223.74488266 17.71484375 249.08203125 C9.79484375 249.08203125 1.87484375 249.08203125 -6.28515625 249.08203125 C-6.28515625 210.47203125 -6.28515625 171.86203125 -6.28515625 132.08203125 C-45.88515625 132.08203125 -85.48515625 132.08203125 -126.28515625 132.08203125 C-126.28515625 170.69203125 -126.28515625 209.30203125 -126.28515625 249.08203125 C-134.20515625 249.08203125 -142.12515625 249.08203125 -150.28515625 249.08203125 C-150.35481867 223.23758822 -150.40825 197.39316806 -150.44059277 171.54864979 C-150.45601406 159.54664206 -150.47701222 147.54469401 -150.51147461 135.54272461 C-150.54152284 125.07298718 -150.56076561 114.60329299 -150.56742173 104.13351363 C-150.57130804 98.59786887 -150.58034082 93.06234777 -150.60234642 87.52674294 C-150.62295616 82.29911089 -150.62894147 77.07165152 -150.62447929 71.8439827 C-150.62529369 69.94191354 -150.63111161 68.03983762 -150.64277267 66.13780403 C-150.70012883 56.28557346 -150.31506634 46.67243357 -148.95137024 36.90483093 C-148.83498363 36.06725496 -148.71859702 35.22967899 -148.59868354 34.36672193 C-146.55852938 21.10011699 -142.20272065 8.10691013 -131.30078125 -0.46484375 C-130.635625 -0.944375 -129.97046875 -1.42390625 -129.28515625 -1.91796875 C-128.681875 -2.376875 -128.07859375 -2.83578125 -127.45703125 -3.30859375 C-122.36688657 -6.85886273 -116.88547813 -8.45702898 -110.9453125 -10.12109375 C-108.38663355 -10.65833956 -108.38663355 -10.65833956 -107.28515625 -11.91796875 C-76.47819397 -18.41604932 -25.67113747 -21.54620256 0 0 Z " fill="#212121" transform="translate(566.28515625,223.91796875)"/>
<path d="M0 0 C110.50424929 0 110.50424929 0 119.4765625 8.37890625 C129.72653327 19.85767469 129.15288047 36.1073326 129.12939453 50.57519531 C129.13075217 51.92487129 129.13253414 53.27454689 129.13470459 54.6242218 C129.13923752 58.26701687 129.13750602 61.9097834 129.1343255 65.55257893 C129.13177833 69.38350306 129.13414617 73.21442489 129.13571167 77.04534912 C129.13752739 83.48092076 129.13514366 89.91648089 129.13037109 96.35205078 C129.12493889 103.76203501 129.12668596 111.17199167 129.1321975 118.58197522 C129.13675676 124.9704198 129.1373652 131.35885614 129.13475883 137.74730182 C129.13321028 141.55099357 129.13296269 145.35467244 129.13629532 149.15836334 C129.13921479 152.74040177 129.13712462 156.32240522 129.13140106 159.90443993 C129.12947849 161.82342355 129.13239309 163.74241019 129.13552856 165.66139221 C129.05975603 197.21997504 129.05975603 197.21997504 119 208 C114.04469773 211.31577016 109.78488541 212.78062672 103.9375 213.6875 C103.25623047 213.80416016 102.57496094 213.92082031 101.87304688 214.04101562 C99.91750397 214.37351427 97.95878278 214.6871527 96 215 C94.02 215.33 92.04 215.66 90 216 C60.3 216 30.6 216 0 216 C0 144.72 0 73.44 0 0 Z " fill="#FEFEFE" transform="translate(201,578)"/>
<path d="M0 0 C143.41266376 0 143.41266376 0 161 15 C181.08239103 35.97732824 178.32153139 68.68975714 178.30158257 95.66260648 C178.30049545 98.58457363 178.30543932 101.50651991 178.310188 104.42848247 C178.32119035 111.33344183 178.32177236 118.23834673 178.31567383 125.14331055 C178.30963065 132.2064024 178.32197528 139.26929522 178.3432439 146.33235317 C178.36099111 152.45700688 178.36684115 158.58159796 178.36360615 164.70627636 C178.36181523 168.33790117 178.36420587 171.96938369 178.37832069 175.60098457 C178.57084505 229.80381981 178.57084505 229.80381981 161.0546875 248.0234375 C154.57581656 254.04497638 146.9334885 257.23976966 138.6875 260.1875 C138.00494141 260.44724609 137.32238281 260.70699219 136.61914062 260.97460938 C93.74268629 276.35291135 45.55087824 264 0 264 C0 176.88 0 89.76 0 0 Z M25 24 C25 95.28 25 166.56 25 240 C73.24802781 245.87886237 73.24802781 245.87886237 143.75 231.875 C154.51188465 218.12370295 154.15142117 202.72355965 154.14526367 185.95483398 C154.14826536 184.60294504 154.15167016 183.25105694 154.15544128 181.89916992 C154.1641782 178.26907982 154.16661485 174.63901336 154.16725707 171.00891376 C154.16797293 168.73279313 154.17011717 166.45667833 154.17275429 164.18055916 C154.18197024 156.21745554 154.18609349 148.25436854 154.18530273 140.29125977 C154.18470143 132.90273656 154.19527322 125.51428624 154.2110464 118.12578148 C154.22416787 111.74916032 154.22948478 105.37256288 154.22884732 98.99592835 C154.2285939 95.20180785 154.23135923 91.40775242 154.24202538 87.61364555 C154.2517857 84.04548281 154.2517319 80.47744636 154.24450874 76.90927887 C154.24298394 74.99609761 154.2512518 73.08291613 154.25994873 71.16975403 C154.23266398 63.57673107 153.43888543 56.44836753 152 49 C151.74945287 47.41675315 151.49934956 45.8334359 151.25 44.25 C149.78685811 37.95163139 145.98076479 33.56810546 141 29.625 C112.36106821 14.11224528 28.3960753 24 25 24 Z " fill="#212121" transform="translate(176,554)"/>
<path d="M0 0 C7.92 0 15.84 0 24 0 C24 41.25 24 82.5 24 125 C45.3778125 124.7834375 45.3778125 124.7834375 67.1875 124.5625 C73.90130005 124.49784546 73.90130005 124.49784546 80.75073242 124.43188477 C84.81407023 124.38856339 84.81407023 124.38856339 88.87739563 124.34410095 C90.66680821 124.32506297 92.45623914 124.30769964 94.24568176 124.29173279 C127.61230524 124.99510554 127.61230524 124.99510554 157 112 C159.10481265 108.45092761 160.13449573 105.01593983 161 101 C161.24405862 99.92898639 161.24405862 99.92898639 161.49304771 98.83633614 C162.76040373 92.99528969 163.3030301 87.47865419 163.31884766 81.51123047 C163.32889328 80.62219528 163.3389389 79.7331601 163.34928894 78.81718445 C163.3798541 75.91719126 163.39708103 73.01728921 163.4140625 70.1171875 C163.43279566 68.09122955 163.45237064 66.06527923 163.4727478 64.03933716 C163.52384814 58.73600787 163.56359152 53.43265334 163.60089111 48.12921143 C163.64107004 42.70587027 163.69209871 37.28263208 163.7421875 31.859375 C163.83868487 21.23964884 163.92216855 10.61987938 164 0 C171.92 0 179.84 0 188 0 C188.06822494 11.27600852 188.12307234 22.55187625 188.15543652 33.82804585 C188.17098258 39.06602562 188.19201441 44.30385486 188.22631836 49.54174805 C188.25931177 54.61222465 188.27693575 59.68255797 188.28463173 64.75313377 C188.29010448 66.671676 188.30078714 68.59021188 188.31719017 70.50869179 C188.48440807 90.9085025 187.68931007 113.53314875 174 130 C171.81142597 132.20688846 169.60224165 134.28976387 167 136 C166.34 136 165.68 136 165 136 C165 136.66 165 137.32 165 138 C165.680625 138.185625 166.36125 138.37125 167.0625 138.5625 C175.4983755 142.69069439 179.65708732 150.54080024 183 159 C184.28361211 163.29595989 185.21352362 167.58805932 186 172 C186.16275421 172.76544128 186.32550842 173.53088257 186.49319458 174.31951904 C188.34105178 183.78315532 188.25520101 193.07553753 188.1953125 202.671875 C188.19157421 204.44834228 188.1887311 206.22481164 188.18673706 208.00128174 C188.17916482 212.63722604 188.15957274 217.27304153 188.1373291 221.90893555 C188.11673123 226.65541848 188.10770577 231.40192259 188.09765625 236.1484375 C188.07631967 245.43235687 188.04119115 254.71614748 188 264 C180.08 264 172.16 264 164 264 C163.98018066 261.66969727 163.96036133 259.33939453 163.93994141 256.93847656 C163.87273507 249.19915238 163.7951018 241.45995733 163.71247292 233.72078323 C163.66273899 229.03312328 163.61640884 224.3454834 163.578125 219.65771484 C163.54098048 215.12533437 163.49454561 210.59313186 163.44193649 206.06090546 C163.42354619 204.34038191 163.40838297 202.61982045 163.39665604 200.89923859 C163.79954885 179.24375646 163.79954885 179.24375646 155.5625 160.125 C142.27774944 150.9228801 120.43897445 149.90657434 104.71655273 149.79467773 C103.82337121 149.78464501 102.93018969 149.77461229 102.00994205 149.76427555 C99.15118466 149.73317725 96.29241326 149.70823914 93.43359375 149.68359375 C91.65563536 149.66516379 89.87768114 149.64632574 88.09973145 149.6270752 C81.54570373 149.55894953 74.99159613 149.49869124 68.4375 149.4375 C53.773125 149.293125 39.10875 149.14875 24 149 C24 186.95 24 224.9 24 264 C16.08 264 8.16 264 0 264 C0 176.88 0 89.76 0 0 Z " fill="#A13223" transform="translate(176,209)"/>
<path d="M0 0 C4.95550615 0.03120427 9.91106121 0.04449866 14.86663818 0.05950928 C24.51522096 0.09126982 34.16351582 0.14383822 43.81195068 0.20599365 C43.81195068 8.45599365 43.81195068 16.70599365 43.81195068 25.20599365 C40.65439209 25.21533936 37.4968335 25.22468506 34.24359131 25.23431396 C23.75819192 25.26822845 13.27298636 25.32385719 2.78774261 25.38989639 C-3.56341009 25.42924195 -9.91442681 25.46149361 -16.26568604 25.47698975 C-22.40615082 25.49224163 -28.54624144 25.5268375 -34.6865387 25.57430267 C-37.01779408 25.5890289 -39.34910292 25.59702958 -41.68040466 25.5978775 C-63.452399 25.14733008 -63.452399 25.14733008 -83.43804932 32.70599365 C-93.24233092 42.9198536 -92.48791585 62.67351677 -92.46270752 75.7543335 C-92.46706797 77.16046923 -92.47225549 78.5666026 -92.47819519 79.97273254 C-92.49145285 83.75180232 -92.49217885 87.5307713 -92.48963189 91.30985975 C-92.48855317 94.48287033 -92.4934683 97.65586124 -92.49823731 100.82886755 C-92.50928661 108.3237322 -92.50979575 115.8185467 -92.50372314 123.31341553 C-92.49768612 131.0052519 -92.50999802 138.69690522 -92.53129321 146.38871038 C-92.54899425 153.03035266 -92.55489729 159.67193713 -92.55165547 166.31360209 C-92.54985606 170.26377964 -92.5523428 174.21382655 -92.56637001 178.16398239 C-92.57908344 181.88241127 -92.57687895 185.60055779 -92.56395912 189.31898308 C-92.56052303 191.30673355 -92.57167055 193.29449322 -92.58352661 195.2822113 C-92.51655071 206.94933635 -91.70975145 221.69812079 -84.18804932 231.20599365 C-71.62077044 241.99660941 -47.1320609 239.67218763 -31.67633057 239.7177124 C-29.48387173 239.73460533 -27.29142231 239.75276155 -25.09898376 239.77210999 C-19.39628036 239.81911581 -13.69361511 239.84924215 -7.99078369 239.87554932 C-2.14435288 239.90560756 3.70194696 239.95204938 9.54827881 239.99700928 C20.96944837 240.08247847 32.39060575 240.14855212 43.81195068 240.20599365 C43.81195068 248.12599365 43.81195068 256.04599365 43.81195068 264.20599365 C31.06717478 264.25139222 18.32245364 264.28799424 5.57761478 264.309618 C-0.34194408 264.32000248 -6.26144418 264.33406287 -12.18096924 264.35687256 C-17.9062971 264.3787929 -23.63156887 264.39060226 -29.3569355 264.39574814 C-31.52831466 264.39940976 -33.69969116 264.40655863 -35.87104607 264.41745377 C-83.26233024 264.64553295 -83.26233024 264.64553295 -100.58648682 247.88568115 C-115.90317596 231.67675769 -117.51519658 209.77540426 -117.44683838 188.40887451 C-117.44955931 187.01214925 -117.45312633 185.61542542 -117.4574585 184.21870422 C-117.46645321 180.47905752 -117.46309283 176.7395231 -117.45670033 172.99987483 C-117.45157339 169.053813 -117.45635001 165.10775966 -117.45947266 161.16169739 C-117.46309264 154.54094752 -117.45836483 147.92024254 -117.4487915 141.29949951 C-117.43790626 133.68432042 -117.44144103 126.06924845 -117.45244431 118.45407194 C-117.46156829 111.87181916 -117.46277779 105.28959832 -117.45756698 98.70734125 C-117.45447576 94.79524742 -117.45395839 90.88320367 -117.46063995 86.9711132 C-117.46648801 83.29126622 -117.4622828 79.61155519 -117.45085144 75.93172264 C-117.44701731 73.96548007 -117.45282589 71.99922578 -117.45910645 70.0329895 C-117.3741846 51.82582066 -115.7253359 31.99446083 -103.08258057 17.8505249 C-78.31068618 -5.51835954 -31.449686 -0.21960505 0 0 Z " fill="#1F1F1F" transform="translate(754.1880493164063,553.7940063476563)"/>
<path d="M0 0 C2.75796063 -0.00967196 5.51516353 -0.04076495 8.27294922 -0.07226562 C42.15496814 -0.27349119 42.15496814 -0.27349119 52.95263672 8.73632812 C60.20581453 16.49096021 62.29244025 25.80874965 62.27319336 36.16357422 C62.27331389 36.83832605 62.27343443 37.51307789 62.27355862 38.20827675 C62.27281769 40.37260974 62.26522719 42.53685447 62.25732422 44.70117188 C62.25585226 46.04532836 62.25483311 47.38948541 62.25427246 48.73364258 C62.24904906 53.69418197 62.23508779 58.65470906 62.22216797 63.61523438 C62.20154297 74.71148437 62.18091797 85.80773437 62.15966797 97.24023438 C22.55966797 97.24023438 -17.04033203 97.24023438 -57.84033203 97.24023438 C-57.92283203 86.84523438 -58.00533203 76.45023437 -58.09033203 65.74023438 C-58.12674805 62.49244141 -58.16316406 59.24464844 -58.20068359 55.8984375 C-58.21238545 53.27279314 -58.22257371 50.64714142 -58.23095703 48.02148438 C-58.24141052 47.36418335 -58.25186401 46.70688232 -58.26263428 46.02966309 C-58.44914038 33.65271295 -57.54120917 20.43820148 -49.84033203 10.24023438 C-36.89628633 -1.57824214 -16.38595476 0.03461212 0 0 Z " fill="#FEFEFE" transform="translate(497.84033203125,232.759765625)"/>
<path d="M0 0 C7.92 0 15.84 0 24 0 C24.00808685 2.56666443 24.01617371 5.13332886 24.02450562 7.777771 C24.10165264 31.96742438 24.18962349 56.15702117 24.28752708 80.34659958 C24.33760061 92.78264899 24.38404411 105.21869198 24.421875 117.65478516 C24.45486635 128.49693105 24.49473692 139.33902636 24.54279006 150.18111634 C24.56798406 155.91930298 24.5897862 161.65745638 24.60334396 167.39568329 C24.61622886 172.80305113 24.638352 178.21030452 24.66738319 183.61760902 C24.6764089 185.59600139 24.68213742 187.57441216 24.68421364 189.55282402 C23.85628781 209.85542154 23.85628781 209.85542154 31 228 C38.2595614 232.67564972 46.63257256 235.12389519 55 237 C55.83144531 237.19335938 56.66289063 237.38671875 57.51953125 237.5859375 C70.67311162 240.44451087 84.02813508 240.2038705 97.41796875 240.31640625 C99.48733401 240.33701045 101.55669538 240.35800775 103.62605286 240.37937927 C109.03952874 240.43424234 114.45304031 240.48380745 119.86657715 240.53222656 C125.40392181 240.58270484 130.94121543 240.63825267 136.47851562 240.69335938 C147.3189682 240.80050266 158.15946478 240.9015734 169 241 C169 248.59 169 256.18 169 264 C156.71545844 264.04548923 144.43097437 264.08205174 132.14636707 264.10362434 C126.43991232 264.11398686 120.73351902 264.12800542 115.02709961 264.15087891 C109.50275267 264.17287973 103.9784642 264.18462496 98.45407677 264.18975449 C96.36415374 264.19340205 94.27423329 264.20052179 92.18433571 264.21146011 C33.71703058 264.50482957 33.71703058 264.50482957 16.25 247.4296875 C0.36569907 230.27684865 -0.31419347 207.83645374 -0.22705078 185.61401367 C-0.22648566 183.58256536 -0.22680519 181.55111665 -0.22793579 179.51966858 C-0.22850638 174.0412379 -0.21679991 168.56289595 -0.20278788 163.08448577 C-0.19023126 157.34566057 -0.18910614 151.60683303 -0.18673706 145.86799622 C-0.18053673 135.0169573 -0.16414558 124.16595898 -0.14403808 113.31493789 C-0.12163392 100.9545387 -0.11067431 88.59413751 -0.10064721 76.23372304 C-0.07977801 50.82245881 -0.04422441 25.4112334 0 0 Z " fill="#202020" transform="translate(642,209)"/>
<path d="M0 0 C0.7528125 0.31324219 1.505625 0.62648438 2.28125 0.94921875 C13.75816806 5.38498162 27.87374802 4.16717675 39.90869141 3.75048828 C41.58777588 3.71544189 41.58777588 3.71544189 43.30078125 3.6796875 C44.30278564 3.64601074 45.30479004 3.61233398 46.3371582 3.57763672 C49.78900505 4.12514704 50.9463133 5.2139649 53 8 C53 9.32 53 10.64 53 12 C53.92232422 12.16435547 53.92232422 12.16435547 54.86328125 12.33203125 C55.67152344 12.49058594 56.47976563 12.64914062 57.3125 12.8125 C58.11300781 12.96332031 58.91351563 13.11414063 59.73828125 13.26953125 C62.28652707 14.09253983 63.38468823 14.88214679 65 17 C65.64492568 22.15940547 65.64492568 22.15940547 63.72315979 24.66423035 C60.67349245 27.02829032 56.79557685 26.40343425 53.08984375 26.36328125 C51.76672935 26.36402901 51.76672935 26.36402901 50.41688538 26.36479187 C48.5465368 26.36245013 46.67618516 26.35271572 44.8059082 26.33618164 C41.97252442 26.31278916 39.14009516 26.31559519 36.30664062 26.32226562 C34.48436948 26.31668153 32.66210227 26.30956707 30.83984375 26.30078125 C30.00404282 26.30169266 29.16824188 26.30260406 28.30711365 26.30354309 C19.62664274 26.20144402 9.51102003 25.51102003 3 19 C2.95936168 17.33382885 2.957279 15.66611905 3 14 C1.783125 13.9175 0.56625 13.835 -0.6875 13.75 C-4.80390854 13.21625609 -7.20820537 12.22801254 -10 9 C-10.52388687 5.7911929 -10.54965675 3.9699825 -8.9375 1.125 C-5.90946518 -0.63321377 -3.43351057 -0.29599229 0 0 Z " fill="#202020" transform="translate(433,793)"/>
<path d="M0 0 C1.20286903 -0.01418472 1.20286903 -0.01418472 2.43003845 -0.02865601 C3.72839378 -0.01954697 3.72839378 -0.01954697 5.05297852 -0.01025391 C5.95250748 -0.01312408 6.85203644 -0.01599426 7.77882385 -0.01895142 C9.68784207 -0.0209945 11.59688111 -0.01544758 13.50585938 -0.00292969 C16.38989922 0.01295238 19.27250127 -0.00268173 22.15649414 -0.02197266 C45.80634885 -0.05122545 45.80634885 -0.05122545 54.99438477 6.38818359 C55.22641602 7.64888672 55.22641602 7.64888672 55.46313477 8.93505859 C55.63844727 9.74458984 55.81375977 10.55412109 55.99438477 11.38818359 C58.48116057 12.83053885 58.48116057 12.83053885 61.49438477 13.63818359 C66.96430958 15.35810841 66.96430958 15.35810841 67.99438477 16.38818359 C68.57385496 22.64646174 68.57385496 22.64646174 66.43188477 25.38818359 C62.43930341 27.02616569 59.05256792 25.88293916 54.96313477 24.89990234 C42.83628474 22.02197235 30.66007235 22.29905206 18.26977539 22.60302734 C17.11541992 22.61720703 15.96106445 22.63138672 14.77172852 22.64599609 C13.73266357 22.66807129 12.69359863 22.69014648 11.62304688 22.71289062 C8.99438477 22.38818359 8.99438477 22.38818359 7.14501953 21.10253906 C5.28988048 18.33852751 5.81199152 15.61046423 5.99438477 12.38818359 C5.30731445 12.42298828 4.62024414 12.45779297 3.91235352 12.49365234 C3.01129883 12.52072266 2.11024414 12.54779297 1.18188477 12.57568359 C0.28856445 12.61048828 -0.60475586 12.64529297 -1.52514648 12.68115234 C-4.00561523 12.38818359 -4.00561523 12.38818359 -5.80639648 11.06396484 C-7.66308835 8.46943452 -7.39237076 6.48222777 -7.00561523 3.38818359 C-4.88330204 0.61546317 -3.44670857 0.01169756 0 0 Z " fill="#202020" transform="translate(508.005615234375,557.61181640625)"/>
<path d="M0 0 C3.6094177 0.90235443 4.59053906 2.48802845 6.5 5.625 C7.25 8.9375 7.25 8.9375 7.5 11.625 C8.7375 11.356875 9.975 11.08875 11.25 10.8125 C13.45703125 10.5390625 13.45703125 10.5390625 15.5 10.625 C19.33232012 13.86773241 19.88659455 16.80558979 20.5 21.625 C20.75262722 26.40189301 20.8120235 31.17409395 20.85009766 35.95703125 C20.86673977 37.48941141 20.8941374 39.02171141 20.93212891 40.55371094 C20.98686554 42.77839819 21.0087506 45.00129314 21.0234375 47.2265625 C21.04610687 47.90892975 21.06877625 48.591297 21.09213257 49.29434204 C21.07566388 52.9983994 20.73866322 54.37689062 18.13134766 57.08740234 C15.5 58.625 15.5 58.625 12.875 58.625 C9.86888735 57.35926836 8.99356891 56.53745937 7.5 53.625 C6.97216859 50.94484632 6.72763923 48.3566708 6.5 45.625 C5.51 46.285 4.52 46.945 3.5 47.625 C-0.0625 47.4375 -0.0625 47.4375 -3.5 46.625 C-6.03176067 42.827359 -5.92168819 39.61052263 -6.0546875 35.1953125 C-6.08354034 34.367966 -6.11239319 33.54061951 -6.14212036 32.6882019 C-6.19916096 30.93829039 -6.25093932 29.1882006 -6.29785156 27.43798828 C-6.37454074 24.76600159 -6.48339125 22.09656164 -6.59375 19.42578125 C-6.64521177 17.72401713 -6.69475399 16.02219366 -6.7421875 14.3203125 C-6.77843231 13.52432648 -6.81467712 12.72834045 -6.85202026 11.90823364 C-6.92527714 7.94241398 -6.78326272 6.08281862 -4.64111328 2.62060547 C-2.5 0.625 -2.5 0.625 0 0 Z " fill="#656565" transform="translate(576.5,586.375)"/>
<path d="M0 0 C2.25 1.375 2.25 1.375 4 4 C4.6256297 7.32626458 4.87102423 10.62083472 5 14 C5.8353125 12.9790625 5.8353125 12.9790625 6.6875 11.9375 C9 10 9 10 11.5625 10.0625 C14.17139887 11.06592264 15.24754238 11.8597874 17 14 C17.36811513 16.95821509 17.56037505 19.71716188 17.6171875 22.68359375 C17.65478683 23.96146507 17.65478683 23.96146507 17.69314575 25.26515198 C17.74210415 27.06631602 17.78365654 28.86769437 17.81835938 30.66918945 C17.87473269 33.42443515 17.96309995 36.17736661 18.0546875 38.93164062 C18.09828812 40.68224457 18.14001708 42.43289633 18.1796875 44.18359375 C18.20763397 45.00661484 18.23558044 45.82963593 18.26437378 46.67759705 C18.31039992 50.03590391 18.2532163 52.51724512 16.67626953 55.52368164 C15 57 15 57 12 57.4375 C8.64126684 56.94768475 8.03285461 56.58831066 6 54 C5.26953125 51.73828125 5.26953125 51.73828125 4.8125 49.3125 C4.65394531 48.50425781 4.49539063 47.69601562 4.33203125 46.86328125 C4.22246094 46.24839844 4.11289062 45.63351562 4 45 C3.34 45.66 2.68 46.32 2 47 C-3.19815668 47.55299539 -3.19815668 47.55299539 -5.8125 45.75 C-8.66379838 41.5480866 -8.17642558 36.51679948 -8.203125 31.62109375 C-8.20882507 30.8126149 -8.21452515 30.00413605 -8.22039795 29.17115784 C-8.22982474 27.46576234 -8.23637269 25.76034882 -8.24023438 24.05493164 C-8.24997872 21.44320286 -8.28103856 18.83224867 -8.3125 16.22070312 C-8.3190268 14.56250467 -8.32427854 12.90430059 -8.328125 11.24609375 C-8.3404718 10.46479599 -8.3528186 9.68349823 -8.36553955 8.87852478 C-8.34335144 3.49891342 -8.34335144 3.49891342 -6.63183594 1.01196289 C-4.22511966 -0.48053247 -2.77732846 -0.47417803 0 0 Z " fill="#636363" transform="translate(411,732)"/>
<path d="M0 0 C1.36627281 -0.00788544 1.36627281 -0.00788544 2.76014709 -0.01593018 C5.77655088 -0.02915348 8.79242856 -0.02038305 11.80883789 -0.01025391 C13.90247194 -0.01227414 15.9961053 -0.01518516 18.08973694 -0.01895142 C22.48046561 -0.02337808 26.87101133 -0.01693329 31.26171875 -0.00292969 C36.89218449 0.01415174 42.52222092 0.00432963 48.15267086 -0.01364708 C52.47721087 -0.02448462 56.80164902 -0.0210385 61.12619209 -0.0132637 C63.20224623 -0.01126107 65.27830958 -0.01372317 67.35435295 -0.02070236 C70.25601587 -0.02831506 73.15698271 -0.01671448 76.05859375 0 C77.34840652 -0.00910904 77.34840652 -0.00910904 78.66427612 -0.0184021 C82.17242206 0.01906451 84.49291535 0.07292806 87.63526917 1.72103882 C89.09399414 3.38818359 89.09399414 3.38818359 89.46899414 6.45068359 C89.09399414 9.38818359 89.09399414 9.38818359 87.09399414 11.38818359 C84.03652382 11.59241341 81.06926176 11.67130821 78.01025391 11.6628418 C77.06868439 11.66795273 76.12711487 11.67306366 75.15701294 11.67832947 C72.03307809 11.69227156 68.90936272 11.69126522 65.78540039 11.68896484 C63.62068092 11.69284926 61.45596221 11.6971834 59.29124451 11.70195007 C54.74915092 11.70942225 50.20713504 11.70911381 45.66503906 11.70385742 C39.83605348 11.69806179 34.00738554 11.71499139 28.17845249 11.7382021 C23.70641714 11.75291339 19.23445874 11.75381468 14.76240349 11.75069237 C12.61294869 11.7512069 10.46348974 11.75646926 8.3140583 11.76650429 C5.31153683 11.77880076 2.30963992 11.7721178 -0.69287109 11.76049805 C-1.58596481 11.76814178 -2.47905853 11.77578552 -3.3992157 11.78366089 C-4.62532562 11.77313942 -4.62532562 11.77313942 -5.87620544 11.7624054 C-6.94112795 11.76265701 -6.94112795 11.76265701 -8.02756405 11.7629137 C-10.48817405 11.27204694 -11.40390987 10.36566063 -12.90600586 8.38818359 C-12.76531448 5.574356 -12.3666323 3.96184416 -10.59522152 1.75574303 C-7.59867299 -0.67021022 -3.69599047 -0.02604088 0 0 Z " fill="#646464" transform="translate(462.906005859375,649.61181640625)"/>
<path d="M0 0 C0.827845 0.00091644 1.65569 0.00183289 2.50862122 0.0027771 C4.24921442 0.00879306 5.98979824 0.02447852 7.73022461 0.04931641 C10.39670815 0.08596742 13.06180572 0.09033445 15.72851562 0.08984375 C17.42318911 0.09967061 19.11785319 0.11132574 20.8125 0.125 C22.00784615 0.12833847 22.00784615 0.12833847 23.2273407 0.13174438 C27.0644386 0.19780012 28.94144712 0.28388142 32.20703125 2.4609375 C32.39453125 6.0859375 32.39453125 6.0859375 32.20703125 9.4609375 C32.8103125 9.42613281 33.41359375 9.39132812 34.03515625 9.35546875 C37.60542482 9.2345403 40.43959887 9.14273383 43.76953125 10.5234375 C46.01854181 13.55471261 45.72837744 15.81151419 45.20703125 19.4609375 C42.83326862 22.14783976 40.67489688 22.67396986 37.23632812 22.95678711 C35.63341849 23.02508216 34.02971732 23.07623264 32.42578125 23.11328125 C31.15003235 23.1544381 31.15003235 23.1544381 29.84851074 23.19642639 C28.05334398 23.24969711 26.25794085 23.29546084 24.46240234 23.33422852 C21.71568799 23.39823577 18.97201693 23.49947269 16.2265625 23.60351562 C14.4805285 23.65070276 12.73443361 23.69569847 10.98828125 23.73828125 C10.16839722 23.77138901 9.34851318 23.80449677 8.50378418 23.83860779 C4.83478123 23.88946454 2.68570018 23.8109295 -0.32226562 21.61157227 C-2.1062684 19.00279398 -2.21184849 17.56064757 -1.79296875 14.4609375 C-1.46296875 14.1309375 -1.13296875 13.8009375 -0.79296875 13.4609375 C-1.4684375 13.50734375 -2.14390625 13.55375 -2.83984375 13.6015625 C-10.11623159 13.89598282 -10.11623159 13.89598282 -13.41796875 11.7734375 C-15.10928658 8.92894842 -15.6022118 7.69790971 -14.79296875 4.4609375 C-9.88619202 0.26777751 -6.14862124 -0.11173403 0 0 Z " fill="#1F1F1F" transform="translate(446.79296875,557.5390625)"/>
<path d="M0 0 C5.67402261 -0.19644824 5.67402261 -0.19644824 7.86157227 1.40600586 C9.11083984 3.12353516 9.11083984 3.12353516 8.79833984 6.81103516 C8.57146484 7.90416016 8.34458984 8.99728516 8.11083984 10.12353516 C8.87009766 10.08873047 9.62935547 10.05392578 10.41162109 10.01806641 C11.90242187 9.97746094 11.90242187 9.97746094 13.42333984 9.93603516 C14.40947266 9.90123047 15.39560547 9.86642578 16.41162109 9.83056641 C19.11083984 10.12353516 19.11083984 10.12353516 20.96240234 11.41650391 C22.11083984 13.12353516 22.11083984 13.12353516 22.17333984 16.62353516 C21.11083984 20.12353516 21.11083984 20.12353516 18.56445312 21.81738281 C14.55438031 23.33398748 11.01512455 23.55645753 6.79052734 23.52197266 C5.61890549 23.52627792 5.61890549 23.52627792 4.4236145 23.53067017 C2.78142568 23.53270215 1.13921217 23.52723314 -0.50292969 23.51464844 C-3.01373277 23.4985379 -5.52293696 23.51454782 -8.03369141 23.53369141 C-9.63395536 23.53170967 -11.23421833 23.52786743 -12.83447266 23.52197266 C-13.58246124 23.52804535 -14.33044983 23.53411804 -15.10110474 23.54037476 C-18.26968686 23.49763542 -20.55756504 23.30023403 -23.37695312 21.79785156 C-24.88916016 20.12353516 -24.88916016 20.12353516 -25.13916016 16.93603516 C-25.05666016 16.00791016 -24.97416016 15.07978516 -24.88916016 14.12353516 C-25.49244141 14.09775391 -26.09572266 14.07197266 -26.71728516 14.04541016 C-33.21443658 13.58432199 -33.21443658 13.58432199 -36.45166016 11.37353516 C-38.20294606 8.63239201 -38.54333107 7.31261837 -37.88916016 4.12353516 C-34.55704731 0.75487819 -31.64246717 0.71069106 -27.03369141 0.61181641 C-26.0420826 0.5848896 -26.0420826 0.5848896 -25.03044128 0.55741882 C-22.92091335 0.50345816 -20.81160143 0.46956458 -18.70166016 0.43603516 C-17.30254023 0.40282691 -15.90345017 0.36833405 -14.50439453 0.33251953 C-11.82325579 0.26649921 -9.14381581 0.21882053 -6.46191406 0.18066406 C-4.30737645 0.14621266 -2.15284595 0.09205172 0 0 Z " fill="#1F1F1F" transform="translate(544.88916015625,795.87646484375)"/>
<path d="M0 0 C3.47662351 0.6953247 4.4918347 1.55947224 6.5 4.5 C7.11816453 7.49294659 7.3696452 10.44969766 7.5 13.5 C8.49 12.84 9.48 12.18 10.5 11.5 C14.0625 11.6875 14.0625 11.6875 17.5 12.5 C20.74052508 17.36078762 19.86884672 22.72418163 19.875 28.4375 C19.89949219 29.63052734 19.92398438 30.82355469 19.94921875 32.05273438 C19.95501953 33.77266602 19.95501953 33.77266602 19.9609375 35.52734375 C19.96915527 36.57656006 19.97737305 37.62577637 19.98583984 38.70678711 C19.37674917 42.20859938 18.33445442 43.40706304 15.5 45.5 C11.875 45.4375 11.875 45.4375 8.5 44.5 C6.47649676 41.46474514 6.17875982 40.30573798 5.875 36.8125 C5.80023437 36.00425781 5.72546875 35.19601562 5.6484375 34.36328125 C5.59945312 33.74839844 5.55046875 33.13351562 5.5 32.5 C4.943125 33.015625 4.38625 33.53125 3.8125 34.0625 C1.5 35.5 1.5 35.5 -1.0625 35.375 C-3.77348613 34.40182549 -4.77676475 33.78632401 -6.5 31.5 C-7.15234049 27.05107727 -6.96308476 22.55378865 -6.9375 18.0625 C-6.95748047 16.82177734 -6.97746094 15.58105469 -6.99804688 14.30273438 C-6.99740234 13.11099609 -6.99675781 11.91925781 -6.99609375 10.69140625 C-6.99794678 9.60029541 -6.9997998 8.50918457 -7.00170898 7.38500977 C-6.25998831 3.11984521 -4.27671067 0.85534213 0 0 Z " fill="#676767" transform="translate(577.5,710.5)"/>
<path d="M0 0 C2.89085151 2.31268121 3.22013498 4.73541502 3.6875 8.25 C3.790625 9.4875 3.89375 10.725 4 12 C4.99 11.34 5.98 10.68 7 10 C10.5625 10.1875 10.5625 10.1875 14 11 C17.31348312 15.97022469 16.32756183 21.66203593 16.3125 27.5 C16.32861328 28.74910156 16.34472656 29.99820313 16.36132812 31.28515625 C16.36229492 33.07759766 16.36229492 33.07759766 16.36328125 34.90625 C16.36626221 36.00259766 16.36924316 37.09894531 16.37231445 38.22851562 C16 41 16 41 14.66088867 42.85351562 C12.02403828 44.67369047 10.11081975 44.44440282 7 44 C4.6875 42.5625 4.6875 42.5625 3 40 C2.38681945 37.00623614 2.13035163 34.05022821 2 31 C1.33291016 31.72896484 1.33291016 31.72896484 0.65234375 32.47265625 C-1 34 -1 34 -3.4375 34.4375 C-6.86385745 33.85251214 -7.85555687 32.70469044 -10 30 C-10.50170898 27.11499023 -10.50170898 27.11499023 -10.49609375 23.80859375 C-10.49673828 22.61685547 -10.49738281 21.42511719 -10.49804688 20.19726562 C-10.47806641 18.95654297 -10.45808594 17.71582031 -10.4375 16.4375 C-10.44458984 15.19291016 -10.45167969 13.94832031 -10.45898438 12.66601562 C-10.39488351 3.55876127 -10.39488351 3.55876127 -8.69165039 1.14868164 C-5.80894617 -0.80876148 -3.35315533 -0.41914442 0 0 Z " fill="#666666" transform="translate(581,656)"/>
<path d="M0 0 C3.375 0.9375 3.375 0.9375 5.375 3.9375 C5.91416146 6.5977023 6.10870098 9.23012663 6.375 11.9375 C7.365 11.2775 8.355 10.6175 9.375 9.9375 C12.9375 10.125 12.9375 10.125 16.375 10.9375 C19.89051763 16.21077644 18.7691425 22.25548345 17.875 28.33984375 C16.58761961 34.72554305 15.48390036 39.68008303 10.375 43.9375 C7.8125 44.625 7.8125 44.625 5.375 43.9375 C3 41.8125 3 41.8125 1.375 38.9375 C1.51548808 35.63603023 2.31650377 33.09922488 3.4375 30 C4.50331998 26.5183214 4.51982941 23.55823528 4.375 19.9375 C4.12105469 20.69675781 3.86710938 21.45601562 3.60546875 22.23828125 C3.26128906 23.23214844 2.91710937 24.22601562 2.5625 25.25 C2.05783203 26.72919922 2.05783203 26.72919922 1.54296875 28.23828125 C0.41895236 30.83592448 -0.40166392 32.22856044 -2.625 33.9375 C-5.41344081 34.35576612 -6.95974158 34.30453913 -9.4375 32.9375 C-11.31460633 29.77605777 -11.10215187 26.47585995 -10.625 22.9375 C-10.13193359 21.52791016 -10.13193359 21.52791016 -9.62890625 20.08984375 C-8.23648745 15.71754034 -8.28098744 11.52101026 -8.1640625 6.9609375 C-7.24857579 1.82625116 -5.18967239 -0.08947711 0 0 Z " fill="#656565" transform="translate(578.625,755.0625)"/>
<path d="M0 0 C2.68510415 0.96388354 3.68933966 1.65051507 5.4375 3.875 C5.94921875 6.35546875 5.94921875 6.35546875 6.125 9.0625 C6.22361328 10.41408203 6.22361328 10.41408203 6.32421875 11.79296875 C6.36160156 12.48003906 6.39898437 13.16710937 6.4375 13.875 C6.870625 13.38773438 7.30375 12.90046875 7.75 12.3984375 C9.4375 10.875 9.4375 10.875 12.4375 10.5 C15.4375 10.875 15.4375 10.875 17.10009766 12.00390625 C19.04778875 14.72882494 18.82605689 16.86385013 18.8359375 20.1875 C18.84173828 22.04761719 18.84173828 22.04761719 18.84765625 23.9453125 C18.83605469 25.24210938 18.82445312 26.53890625 18.8125 27.875 C18.82410156 29.17179688 18.83570313 30.46859375 18.84765625 31.8046875 C18.84378906 33.04476562 18.83992188 34.28484375 18.8359375 35.5625 C18.83255371 36.70074219 18.82916992 37.83898437 18.82568359 39.01171875 C18.4375 41.875 18.4375 41.875 17.10009766 43.74609375 C14.49921983 45.51209361 12.48936576 45.25648322 9.4375 44.875 C6.56102281 42.68107672 5.90804449 40.68019768 5.25 37.1875 C5.09144531 36.37925781 4.93289063 35.57101562 4.76953125 34.73828125 C4.65996094 34.12339844 4.55039062 33.50851562 4.4375 32.875 C3.4475 33.535 2.4575 34.195 1.4375 34.875 C-1.30970081 35.2184001 -2.87263342 35.34559383 -5.19165039 33.76367188 C-8.06606425 29.80348209 -7.03866554 24.13920566 -7.00854492 19.42333984 C-7.00002697 17.38146429 -7.02880834 15.34238085 -7.06054688 13.30078125 C-7.05990234 12.01558594 -7.05925781 10.73039063 -7.05859375 9.40625 C-7.06044678 8.22611328 -7.0622998 7.04597656 -7.06420898 5.83007812 C-6.5625 2.875 -6.5625 2.875 -4.69165039 0.95898438 C-2.5625 -0.125 -2.5625 -0.125 0 0 Z " fill="#656565" transform="translate(409.5625,676.125)"/>
<path d="M0 0 C2.31691307 1.68402708 2.92803813 2.6511772 3.51171875 5.48046875 C3.59873047 6.82044922 3.59873047 6.82044922 3.6875 8.1875 C3.78611328 9.53908203 3.78611328 9.53908203 3.88671875 10.91796875 C3.92410156 11.60503906 3.96148437 12.29210937 4 13 C4.433125 12.51273438 4.86625 12.02546875 5.3125 11.5234375 C7 10 7 10 10 9.625 C13 10 13 10 14.66259766 11.12890625 C16.61028875 13.85382494 16.38855689 15.98885013 16.3984375 19.3125 C16.40423828 21.17261719 16.40423828 21.17261719 16.41015625 23.0703125 C16.39855469 24.36710938 16.38695312 25.66390625 16.375 27 C16.38660156 28.29679688 16.39820313 29.59359375 16.41015625 30.9296875 C16.40628906 32.16976562 16.40242188 33.40984375 16.3984375 34.6875 C16.39505371 35.82574219 16.39166992 36.96398437 16.38818359 38.13671875 C16 41 16 41 14.66259766 42.87109375 C12.06171983 44.63709361 10.05186576 44.38148322 7 44 C4.12352281 41.80607672 3.47054449 39.80519768 2.8125 36.3125 C2.65394531 35.50425781 2.49539063 34.69601562 2.33203125 33.86328125 C2.22246094 33.24839844 2.11289062 32.63351562 2 32 C1.01 32.66 0.02 33.32 -1 34 C-3.74690648 34.34336331 -5.31044031 34.46882216 -7.63134766 32.89086914 C-9.65234306 30.09875187 -9.38869372 27.85018077 -9.3984375 24.43359375 C-9.40230469 23.14388672 -9.40617187 21.85417969 -9.41015625 20.52539062 C-9.40072998 19.51955933 -9.40072998 19.51955933 -9.39111328 18.4934082 C-9.37502661 16.44089523 -9.39098134 14.39034315 -9.41015625 12.33789062 C-9.40628906 11.04947266 -9.40242188 9.76105469 -9.3984375 8.43359375 C-9.39505371 7.24822021 -9.39166992 6.06284668 -9.38818359 4.84155273 C-9.19603271 3.43498413 -9.19603271 3.43498413 -9 2 C-5.53076119 -0.31282587 -4.07794425 -0.42478586 0 0 Z " fill="#646464" transform="translate(412,621)"/>
<path d="M0 0 C0.7528125 0.31324219 1.505625 0.62648438 2.28125 0.94921875 C13.75816806 5.38498162 27.87374802 4.16717675 39.90869141 3.75048828 C41.58777588 3.71544189 41.58777588 3.71544189 43.30078125 3.6796875 C44.30278564 3.64601074 45.30479004 3.61233398 46.3371582 3.57763672 C49.78900505 4.12514704 50.9463133 5.2139649 53 8 C53 9.32 53 10.64 53 12 C55.31 12.33 57.62 12.66 60 13 C60 13.33 60 13.66 60 14 C23.50030371 14.50010124 23.50030371 14.50010124 13 11 C9.5 10.66666667 9.5 10.66666667 6 11 C5.2884375 11.7734375 5.2884375 11.7734375 4.5625 12.5625 C3 14 3 14 -0.875 13.9375 C-4.8340343 13.25087782 -7.3123393 12.10760769 -10 9 C-10.52388687 5.7911929 -10.54965675 3.9699825 -8.9375 1.125 C-5.90946518 -0.63321377 -3.43351057 -0.29599229 0 0 Z " fill="#626262" transform="translate(433,793)"/>
<path d="M0 0 C1.20286903 -0.01418472 1.20286903 -0.01418472 2.43003845 -0.02865601 C3.72839378 -0.01954697 3.72839378 -0.01954697 5.05297852 -0.01025391 C5.95250748 -0.01312408 6.85203644 -0.01599426 7.77882385 -0.01895142 C9.68784207 -0.0209945 11.59688111 -0.01544758 13.50585938 -0.00292969 C16.38989922 0.01295238 19.27250127 -0.00268173 22.15649414 -0.02197266 C46.42690567 -0.05199302 46.42690567 -0.05199302 54.99438477 6.38818359 C54.99438477 7.70818359 54.99438477 9.02818359 54.99438477 10.38818359 C53.0186145 10.38032837 53.0186145 10.38032837 51.00292969 10.37231445 C46.12207721 10.3542321 41.2412277 10.3427397 36.36035156 10.33325195 C34.24673973 10.32821916 32.13313138 10.32139239 30.01953125 10.31274414 C26.98379659 10.30063255 23.94810791 10.29494478 20.91235352 10.29052734 C19.96539108 10.28536606 19.01842865 10.28020477 18.04277039 10.27488708 C17.16208389 10.27481155 16.2813974 10.27473602 15.37402344 10.2746582 C14.59903 10.27243759 13.82403656 10.27021698 13.02555847 10.26792908 C9.83631185 10.45674666 8.25477705 11.12779131 5.99438477 13.38818359 C3.71704102 13.47021484 3.71704102 13.47021484 1.05688477 13.20068359 C0.18161133 13.12462891 -0.69366211 13.04857422 -1.59545898 12.97021484 C-4.3387523 12.30773396 -5.34311684 11.6425099 -7.00561523 9.38818359 C-7.65032859 4.23047675 -7.65032859 4.23047675 -5.73252869 1.72494507 C-3.64083026 0.10581246 -2.62016376 0.0088924 0 0 Z " fill="#616161" transform="translate(508.005615234375,557.61181640625)"/>
<path d="M0 0 C3.6094177 0.90235443 4.59053906 2.48802845 6.5 5.625 C7.96551927 12.30742959 7.79590121 19.14878553 7.85009766 25.95703125 C7.86673977 27.48941141 7.8941374 29.02171141 7.93212891 30.55371094 C7.98686554 32.77839819 8.0087506 35.00129314 8.0234375 37.2265625 C8.04610687 37.90892975 8.06877625 38.591297 8.09213257 39.29434204 C8.07566916 42.9972124 7.73488532 44.37963869 5.13525391 47.09521484 C2.5 48.625 2.5 48.625 -0.1875 48.5 C-2.5 47.625 -2.5 47.625 -4.5 45.625 C-4.80297852 43.01806641 -4.80297852 43.01806641 -4.87890625 39.7265625 C-4.91306641 38.52386719 -4.94722656 37.32117188 -4.98242188 36.08203125 C-5.00884766 34.81746094 -5.03527344 33.55289063 -5.0625 32.25 C-5.1234423 29.78378184 -5.18722038 27.31763204 -5.25390625 24.8515625 C-5.28548828 23.645 -5.31707031 22.4384375 -5.34960938 21.1953125 C-5.53510461 16.79160754 -5.95576956 12.43150131 -6.45532227 8.05322266 C-6.5 5.625 -6.5 5.625 -4.875 2.375 C-2.5 0.625 -2.5 0.625 0 0 Z " fill="#242424" transform="translate(589.5,596.375)"/>
<path d="M0 0 C2.60889887 1.00342264 3.68504238 1.7972874 5.4375 3.9375 C5.80561513 6.89571509 5.99787505 9.65466188 6.0546875 12.62109375 C6.09228683 13.89896507 6.09228683 13.89896507 6.13064575 15.20265198 C6.17960415 17.00381602 6.22115654 18.80519437 6.25585938 20.60668945 C6.31223269 23.36193515 6.40059995 26.11486661 6.4921875 28.86914062 C6.53578812 30.61974457 6.57751708 32.37039633 6.6171875 34.12109375 C6.64513397 34.94411484 6.67308044 35.76713593 6.70187378 36.61509705 C6.74789992 39.97340391 6.6907163 42.45474512 5.11376953 45.46118164 C3.4375 46.9375 3.4375 46.9375 0.4375 47.375 C-2.5625 46.9375 -2.5625 46.9375 -4.375 45.6875 C-7.19214848 41.53591276 -6.75331579 36.65908863 -6.80078125 31.8125 C-6.808853 31.02858887 -6.81692474 30.24467773 -6.82524109 29.43701172 C-6.83904113 27.78289986 -6.84978145 26.12876001 -6.85766602 24.47460938 C-6.86922258 22.78311828 -6.88973212 21.09166468 -6.91918945 19.40039062 C-6.96178405 16.9541755 -6.97801924 14.50903946 -6.98828125 12.0625 C-7.00578934 11.3082373 -7.02329742 10.55397461 -7.04133606 9.77685547 C-7.02673571 6.24583161 -6.82979673 4.29720553 -4.69604492 1.42578125 C-2.5625 -0.0625 -2.5625 -0.0625 0 0 Z " fill="#1F1F1F" transform="translate(422.5625,742.0625)"/>
<path d="M0 0 C0.827845 0.00091644 1.65569 0.00183289 2.50862122 0.0027771 C4.24921442 0.00879306 5.98979824 0.02447852 7.73022461 0.04931641 C10.39670815 0.08596742 13.06180572 0.09033445 15.72851562 0.08984375 C17.42318911 0.09967061 19.11785319 0.11132574 20.8125 0.125 C22.00784615 0.12833847 22.00784615 0.12833847 23.2273407 0.13174438 C27.0644386 0.19780012 28.94144712 0.28388142 32.20703125 2.4609375 C32.39453125 6.0859375 32.39453125 6.0859375 32.20703125 9.4609375 C35.17703125 9.4609375 38.14703125 9.4609375 41.20703125 9.4609375 C41.20703125 9.7909375 41.20703125 10.1209375 41.20703125 10.4609375 C40.10713867 10.4702832 39.00724609 10.47962891 37.87402344 10.48925781 C33.78848959 10.52916687 29.70370806 10.59492754 25.61865234 10.66845703 C23.85149814 10.69666147 22.08421791 10.71787868 20.31689453 10.73193359 C17.77440903 10.75337108 15.23343787 10.80002253 12.69140625 10.8515625 C11.50837921 10.85340546 11.50837921 10.85340546 10.30145264 10.85528564 C6.7175344 10.95072551 4.63152204 11.13246852 1.75488281 13.35839844 C0.30067965 15.3337293 -0.82765177 17.20853121 -1.79296875 19.4609375 C-1.83568975 17.79481845 -1.83360707 16.12710865 -1.79296875 14.4609375 C-1.46296875 14.1309375 -1.13296875 13.8009375 -0.79296875 13.4609375 C-1.4684375 13.50734375 -2.14390625 13.55375 -2.83984375 13.6015625 C-10.11623159 13.89598282 -10.11623159 13.89598282 -13.41796875 11.7734375 C-15.10928658 8.92894842 -15.6022118 7.69790971 -14.79296875 4.4609375 C-9.88619202 0.26777751 -6.14862124 -0.11173403 0 0 Z " fill="#616161" transform="translate(446.79296875,557.5390625)"/>
<path d="M0 0 C5.67402261 -0.19644824 5.67402261 -0.19644824 7.86157227 1.40600586 C9.11083984 3.12353516 9.11083984 3.12353516 8.79833984 6.81103516 C8.57146484 7.90416016 8.34458984 8.99728516 8.11083984 10.12353516 C8.77083984 10.45353516 9.43083984 10.78353516 10.11083984 11.12353516 C8.66463257 11.16111938 8.66463257 11.16111938 7.18920898 11.19946289 C3.62396142 11.29338821 0.05891552 11.39364454 -3.50610352 11.49584961 C-5.05130305 11.539255 -6.59655229 11.58092586 -8.1418457 11.62084961 C-10.35855112 11.67841714 -12.57500496 11.74214939 -14.79150391 11.80712891 C-15.48630356 11.8238414 -16.18110321 11.84055389 -16.8969574 11.85777283 C-20.17678044 11.68856371 -20.17678044 11.68856371 -22.88916016 13.12353516 C-32.36721691 14.07917394 -32.36721691 14.07917394 -36.57666016 11.43603516 C-38.15549356 8.65428106 -38.53361776 7.26526596 -37.88916016 4.12353516 C-34.55704731 0.75487819 -31.64246717 0.71069106 -27.03369141 0.61181641 C-26.0420826 0.5848896 -26.0420826 0.5848896 -25.03044128 0.55741882 C-22.92091335 0.50345816 -20.81160143 0.46956458 -18.70166016 0.43603516 C-17.30254023 0.40282691 -15.90345017 0.36833405 -14.50439453 0.33251953 C-11.82325579 0.26649921 -9.14381581 0.21882053 -6.46191406 0.18066406 C-4.30737645 0.14621266 -2.15284595 0.09205172 0 0 Z " fill="#606060" transform="translate(544.88916015625,795.87646484375)"/>
<path d="M0 0 C3.4375 0.8125 3.4375 0.8125 5.4375 3.8125 C6.61939011 12.62295354 5.50777671 24.34172768 0.0625 31.625 C-2.5625 33.8125 -2.5625 33.8125 -5.125 34.5 C-8.68124469 33.49695663 -9.76410669 31.99427278 -11.5625 28.8125 C-11.42557399 25.59473885 -10.67471975 23.11747369 -9.56640625 20.10546875 C-8.25170963 15.79305922 -7.84787461 11.50708259 -7.43945312 7.02734375 C-7.22265625 5.078125 -7.22265625 5.078125 -6.5625 1.8125 C-3.5625 -0.1875 -3.5625 -0.1875 0 0 Z " fill="#242424" transform="translate(591.5625,765.1875)"/>
<path d="M0 0 C3.4375 0.875 3.4375 0.875 5.4375 3.875 C5.17672483 7.06949586 4.60501515 10.06984654 3.953125 13.203125 C3.78296875 14.02296875 3.6128125 14.8428125 3.4375 15.6875 C3.26089844 16.53054688 3.08429688 17.37359375 2.90234375 18.2421875 C2.28641887 21.7307032 2.05483331 25.21052734 1.87890625 28.74609375 C1.3362248 31.36345117 0.56021343 32.28421948 -1.5625 33.875 C-6.63792403 34.509428 -6.63792403 34.509428 -9.23046875 32.73046875 C-12.52407639 28.14259887 -10.88635919 20.30557957 -10.17578125 14.97265625 C-9.23526565 9.96911326 -8.12329581 5.33941443 -5.375 1 C-3.5625 -0.125 -3.5625 -0.125 0 0 Z " fill="#232323" transform="translate(426.5625,588.125)"/>
<path d="M0 0 C3.4375 0.25 3.4375 0.25 7 1 C9 4 9 4 8.75 7.25 C8 11 8 11 7 14.125 C5.56790427 18.67034732 5.66006849 23.37914076 5.5390625 28.109375 C5 31 5 31 3.12109375 32.8671875 C0.48609194 34.27446287 -1.05291874 34.45339712 -4 34 C-5.62890625 32.84765625 -5.62890625 32.84765625 -7 31 C-8.49010726 20.84681816 -6.65382023 9.60957076 -1 1 C-0.67 0.67 -0.34 0.34 0 0 Z " fill="#626262" transform="translate(410,578)"/>
<path d="M0 0 C1.29679688 -0.01611328 2.59359375 -0.03222656 3.9296875 -0.04882812 C5.16976562 -0.04947266 6.40984375 -0.05011719 7.6875 -0.05078125 C9.39486328 -0.05525269 9.39486328 -0.05525269 11.13671875 -0.05981445 C14 0.3125 14 0.3125 15.8671875 1.64770508 C17.6583909 4.28007921 17.45005592 6.22640225 17 9.3125 C14.73157165 11.61165122 13.33431227 12.26751764 10.11499023 12.70068359 C9.02387939 12.70406738 7.93276855 12.70745117 6.80859375 12.7109375 C5.02098633 12.71673828 5.02098633 12.71673828 3.19726562 12.72265625 C1.95654297 12.71105469 0.71582031 12.69945312 -0.5625 12.6875 C-2.42938477 12.70490234 -2.42938477 12.70490234 -4.33398438 12.72265625 C-5.52443359 12.71878906 -6.71488281 12.71492187 -7.94140625 12.7109375 C-9.03138916 12.70755371 -10.12137207 12.70416992 -11.24438477 12.70068359 C-14 12.3125 -14 12.3125 -15.85522461 11.01025391 C-17.77550943 8.16238429 -17.36087052 5.62047976 -17 2.3125 C-11.93113716 -1.06674189 -5.95118586 -0.01478923 0 0 Z " fill="#626262" transform="translate(523,701.6875)"/>
<path d="M0 0 C1.66259766 1.12890625 1.66259766 1.12890625 3 3 C3.38818359 5.86328125 3.38818359 5.86328125 3.3984375 9.3125 C3.40230469 10.55257812 3.40617187 11.79265625 3.41015625 13.0703125 C3.39855469 14.36710938 3.38695312 15.66390625 3.375 17 C3.38660156 18.29679688 3.39820313 19.59359375 3.41015625 20.9296875 C3.40628906 22.16976562 3.40242188 23.40984375 3.3984375 24.6875 C3.39505371 25.82574219 3.39166992 26.96398437 3.38818359 28.13671875 C3 31 3 31 1.66259766 32.87109375 C-0.93828017 34.63709361 -2.94813424 34.38148322 -6 34 C-7.66259766 32.87109375 -7.66259766 32.87109375 -9 31 C-9.38818359 28.13671875 -9.38818359 28.13671875 -9.3984375 24.6875 C-9.40230469 23.44742188 -9.40617187 22.20734375 -9.41015625 20.9296875 C-9.39855469 19.63289062 -9.38695312 18.33609375 -9.375 17 C-9.38660156 15.70320312 -9.39820313 14.40640625 -9.41015625 13.0703125 C-9.40628906 11.83023438 -9.40242188 10.59015625 -9.3984375 9.3125 C-9.39505371 8.17425781 -9.39166992 7.03601563 -9.38818359 5.86328125 C-9 3 -9 3 -7.66259766 1.12890625 C-5.06171983 -0.63709361 -3.05186576 -0.38148322 0 0 Z " fill="#1F1F1F" transform="translate(425,687)"/>
<path d="M0 0 C1.29679688 -0.01611328 2.59359375 -0.03222656 3.9296875 -0.04882812 C5.16976562 -0.04947266 6.40984375 -0.05011719 7.6875 -0.05078125 C9.39486328 -0.05525269 9.39486328 -0.05525269 11.13671875 -0.05981445 C14 0.3125 14 0.3125 15.8671875 1.64770508 C17.6583909 4.28007921 17.45005592 6.22640225 17 9.3125 C14.73157165 11.61165122 13.33431227 12.26751764 10.11499023 12.70068359 C9.02387939 12.70406738 7.93276855 12.70745117 6.80859375 12.7109375 C5.02098633 12.71673828 5.02098633 12.71673828 3.19726562 12.72265625 C1.95654297 12.71105469 0.71582031 12.69945312 -0.5625 12.6875 C-2.42938477 12.70490234 -2.42938477 12.70490234 -4.33398438 12.72265625 C-5.52443359 12.71878906 -6.71488281 12.71492187 -7.94140625 12.7109375 C-9.03138916 12.70755371 -10.12137207 12.70416992 -11.24438477 12.70068359 C-14 12.3125 -14 12.3125 -15.85522461 11.01025391 C-17.77550943 8.16238429 -17.36087052 5.62047976 -17 2.3125 C-11.93113716 -1.06674189 -5.95118586 -0.01478923 0 0 Z " fill="#626262" transform="translate(522,674.6875)"/>
<path d="M0 0 C3.4375 0.8125 3.4375 0.8125 5.4375 3.8125 C5.88207945 8.29860302 5.7616246 12.80680493 5.75 17.3125 C5.76611328 18.56160156 5.78222656 19.81070313 5.79882812 21.09765625 C5.79979492 22.89009766 5.79979492 22.89009766 5.80078125 24.71875 C5.80376221 25.81509766 5.80674316 26.91144531 5.80981445 28.04101562 C5.4375 30.8125 5.4375 30.8125 4.10229492 32.67382812 C1.53105206 34.43248434 -0.53386575 34.12798273 -3.5625 33.8125 C-4.5525 33.1525 -5.5425 32.4925 -6.5625 31.8125 C-6.95068359 28.86328125 -6.95068359 28.86328125 -6.9609375 25.125 C-6.96380768 24.46669189 -6.96667786 23.80838379 -6.96963501 23.13012695 C-6.97167676 21.73810974 -6.96613902 20.34606391 -6.95361328 18.95410156 C-6.93755878 16.82031253 -6.95345563 14.68841745 -6.97265625 12.5546875 C-6.97067383 11.20312081 -6.96683019 9.8515553 -6.9609375 8.5 C-6.95755371 7.26636719 -6.95416992 6.03273438 -6.95068359 4.76171875 C-6.82258301 3.78847656 -6.69448242 2.81523438 -6.5625 1.8125 C-3.5625 -0.1875 -3.5625 -0.1875 0 0 Z " fill="#242424" transform="translate(591.5625,666.1875)"/>
<path d="M0 0 C1.29679688 -0.01611328 2.59359375 -0.03222656 3.9296875 -0.04882812 C5.16976562 -0.04947266 6.40984375 -0.05011719 7.6875 -0.05078125 C9.39486328 -0.05525269 9.39486328 -0.05525269 11.13671875 -0.05981445 C14 0.3125 14 0.3125 15.8671875 1.64770508 C17.6583909 4.28007921 17.45005592 6.22640225 17 9.3125 C14.73157165 11.61165122 13.33431227 12.26751764 10.11499023 12.70068359 C9.02387939 12.70406738 7.93276855 12.70745117 6.80859375 12.7109375 C5.02098633 12.71673828 5.02098633 12.71673828 3.19726562 12.72265625 C1.95654297 12.71105469 0.71582031 12.69945312 -0.5625 12.6875 C-2.42938477 12.70490234 -2.42938477 12.70490234 -4.33398438 12.72265625 C-5.52443359 12.71878906 -6.71488281 12.71492187 -7.94140625 12.7109375 C-9.03138916 12.70755371 -10.12137207 12.70416992 -11.24438477 12.70068359 C-14 12.3125 -14 12.3125 -15.85522461 11.01025391 C-17.77550943 8.16238429 -17.36087052 5.62047976 -17 2.3125 C-11.93113716 -1.06674189 -5.95118586 -0.01478923 0 0 Z " fill="#626262" transform="translate(522,622.6875)"/>
<path d="M0 0 C1.66259766 1.12890625 1.66259766 1.12890625 3 3 C3.38818359 5.86328125 3.38818359 5.86328125 3.3984375 9.3125 C3.40230469 10.55257812 3.40617187 11.79265625 3.41015625 13.0703125 C3.39855469 14.36710938 3.38695312 15.66390625 3.375 17 C3.38660156 18.29679688 3.39820313 19.59359375 3.41015625 20.9296875 C3.40628906 22.16976562 3.40242188 23.40984375 3.3984375 24.6875 C3.39505371 25.82574219 3.39166992 26.96398437 3.38818359 28.13671875 C3 31 3 31 1.66259766 32.87109375 C-0.93828017 34.63709361 -2.94813424 34.38148322 -6 34 C-7.66259766 32.87109375 -7.66259766 32.87109375 -9 31 C-9.38818359 28.13671875 -9.38818359 28.13671875 -9.3984375 24.6875 C-9.40230469 23.44742188 -9.40617187 22.20734375 -9.41015625 20.9296875 C-9.39855469 19.63289062 -9.38695312 18.33609375 -9.375 17 C-9.38660156 15.70320312 -9.39820313 14.40640625 -9.41015625 13.0703125 C-9.40628906 11.83023438 -9.40242188 10.59015625 -9.3984375 9.3125 C-9.39505371 8.17425781 -9.39166992 7.03601563 -9.38818359 5.86328125 C-9 3 -9 3 -7.66259766 1.12890625 C-5.06171983 -0.63709361 -3.05186576 -0.38148322 0 0 Z " fill="#1F1F1F" transform="translate(425,631)"/>
<path d="M0 0 C1.24007813 -0.00386719 2.48015625 -0.00773438 3.7578125 -0.01171875 C5.70300781 0.00568359 5.70300781 0.00568359 7.6875 0.0234375 C8.98429687 0.01183594 10.28109375 0.00023437 11.6171875 -0.01171875 C12.85726563 -0.00785156 14.09734375 -0.00398437 15.375 0 C16.51324219 0.00338379 17.65148437 0.00676758 18.82421875 0.01025391 C21.6875 0.3984375 21.6875 0.3984375 23.5546875 1.73583984 C25.34709358 4.3665048 25.13739721 6.31342808 24.6875 9.3984375 C22.41907165 11.69758872 21.02181227 12.35345514 17.80249023 12.78662109 C16.71137939 12.79000488 15.62026855 12.79338867 14.49609375 12.796875 C12.70848633 12.80267578 12.70848633 12.80267578 10.88476562 12.80859375 C9.64404297 12.79699219 8.40332031 12.78539062 7.125 12.7734375 C5.25811523 12.79083984 5.25811523 12.79083984 3.35351562 12.80859375 C2.16306641 12.80472656 0.97261719 12.80085937 -0.25390625 12.796875 C-1.34388916 12.79349121 -2.43387207 12.79010742 -3.55688477 12.78662109 C-6.3125 12.3984375 -6.3125 12.3984375 -8.16772461 11.06103516 C-9.95591479 8.46398352 -9.69496727 6.45817566 -9.3125 3.3984375 C-6.8422829 -0.23957687 -4.17572637 0.01241368 0 0 Z " fill="#616161" transform="translate(459.3125,701.6015625)"/>
<path d="M0 0 C1.24007813 -0.00386719 2.48015625 -0.00773438 3.7578125 -0.01171875 C5.70300781 0.00568359 5.70300781 0.00568359 7.6875 0.0234375 C8.98429687 0.01183594 10.28109375 0.00023437 11.6171875 -0.01171875 C12.85726563 -0.00785156 14.09734375 -0.00398437 15.375 0 C16.51324219 0.00338379 17.65148437 0.00676758 18.82421875 0.01025391 C21.6875 0.3984375 21.6875 0.3984375 23.5546875 1.73583984 C25.34709358 4.3665048 25.13739721 6.31342808 24.6875 9.3984375 C22.41907165 11.69758872 21.02181227 12.35345514 17.80249023 12.78662109 C16.71137939 12.79000488 15.62026855 12.79338867 14.49609375 12.796875 C12.70848633 12.80267578 12.70848633 12.80267578 10.88476562 12.80859375 C9.64404297 12.79699219 8.40332031 12.78539062 7.125 12.7734375 C5.25811523 12.79083984 5.25811523 12.79083984 3.35351562 12.80859375 C2.16306641 12.80472656 0.97261719 12.80085937 -0.25390625 12.796875 C-1.34388916 12.79349121 -2.43387207 12.79010742 -3.55688477 12.78662109 C-6.3125 12.3984375 -6.3125 12.3984375 -8.16772461 11.06103516 C-9.95591479 8.46398352 -9.69496727 6.45817566 -9.3125 3.3984375 C-6.8422829 -0.23957687 -4.17572637 0.01241368 0 0 Z " fill="#616161" transform="translate(458.3125,674.6015625)"/>
<path d="M0 0 C1.24007813 -0.00386719 2.48015625 -0.00773438 3.7578125 -0.01171875 C5.70300781 0.00568359 5.70300781 0.00568359 7.6875 0.0234375 C8.98429687 0.01183594 10.28109375 0.00023437 11.6171875 -0.01171875 C12.85726563 -0.00785156 14.09734375 -0.00398437 15.375 0 C16.51324219 0.00338379 17.65148437 0.00676758 18.82421875 0.01025391 C21.6875 0.3984375 21.6875 0.3984375 23.5546875 1.73583984 C25.34709358 4.3665048 25.13739721 6.31342808 24.6875 9.3984375 C22.41907165 11.69758872 21.02181227 12.35345514 17.80249023 12.78662109 C16.71137939 12.79000488 15.62026855 12.79338867 14.49609375 12.796875 C12.70848633 12.80267578 12.70848633 12.80267578 10.88476562 12.80859375 C9.64404297 12.79699219 8.40332031 12.78539062 7.125 12.7734375 C5.25811523 12.79083984 5.25811523 12.79083984 3.35351562 12.80859375 C2.16306641 12.80472656 0.97261719 12.80085937 -0.25390625 12.796875 C-1.34388916 12.79349121 -2.43387207 12.79010742 -3.55688477 12.78662109 C-6.3125 12.3984375 -6.3125 12.3984375 -8.16772461 11.06103516 C-9.95591479 8.46398352 -9.69496727 6.45817566 -9.3125 3.3984375 C-6.8422829 -0.23957687 -4.17572637 0.01241368 0 0 Z " fill="#616161" transform="translate(458.3125,622.6015625)"/>
<path d="M0 0 C3.4375 0.8125 3.4375 0.8125 5.4375 3.8125 C5.90620733 8.11003414 5.80784698 12.42967395 5.8125 16.75 C5.83699219 17.94302734 5.86148438 19.13605469 5.88671875 20.36523438 C5.89058594 21.51185547 5.89445313 22.65847656 5.8984375 23.83984375 C5.90665527 24.88906006 5.91487305 25.93827637 5.92333984 27.01928711 C5.3140539 30.52222204 4.27776748 31.72403097 1.4375 33.8125 C-2.25 33.6875 -2.25 33.6875 -5.5625 32.8125 C-7.67986587 28.57776826 -6.78938323 23.0397861 -6.80273438 18.38134766 C-6.81246351 16.3202311 -6.84349856 14.26010219 -6.875 12.19921875 C-6.88015625 10.90628906 -6.8853125 9.61335937 -6.890625 8.28125 C-6.8999707 7.08951172 -6.90931641 5.89777344 -6.91894531 4.66992188 C-6.80131836 3.72697266 -6.68369141 2.78402344 -6.5625 1.8125 C-3.5625 -0.1875 -3.5625 -0.1875 0 0 Z " fill="#222222" transform="translate(591.5625,722.1875)"/>
<path d="M0 0 C0.33 0 0.66 0 1 0 C1 3.96 1 7.92 1 12 C-0.32 12.33 -1.64 12.66 -3 13 C-2.01 8.71 -1.02 4.42 0 0 Z " fill="#DCDCDC" transform="translate(583,770)"/>
</svg>
